<?xml version="1.0" encoding="UTF-8"?><svg id="a" xmlns="http://www.w3.org/2000/svg" viewBox="0 0 200 49.67681"><g><path d="M22.58129,30.35299c-1.2081,0-2.28069,.76951-2.67138,1.91563-.18708,.55244,.10775,1.15346,.66174,1.34148h0c.55431,.18708,1.15258-.10867,1.33968-.66173,.0995-.28325,.37451-.48135,.66997-.48135,.29454,0,.56986,.19871,.6657,.48135,.15143,.44075,.56256,.7182,1.00087,.7182,.11569,0,.23166-.01892,.34277-.05647,.5549-.18769,.84975-.78841,.65868-1.34148-.38709-1.14585-1.45993-1.91563-2.66803-1.91563Z"/><path d="M30.88827,31.37261c-.47492-2.86243-1.83038-5.50694-3.9316-7.61026l-.00883-.00862v-5.49368c3.21347-1.22343,5.17962-4.45376,4.79351-7.90515-.37493-3.36181-3.07863-6.1409-6.42854-6.60801-.82079-.11534-1.64285-.09847-2.44586,.05021-1.34216-2.34594-3.83869-3.7971-6.55028-3.7971-2.87573,0-5.52053,1.6594-6.77909,4.23972-.81106-.10809-1.62339-.05593-2.41717,.15513-2.8211,.75368-4.8029,3.28779-4.81938,6.16249-.01732,2.99279,1.96536,5.54429,4.84048,6.25879v6.93835l-.00805,.00786c-2.10481,2.10332-3.46125,4.74751-3.9316,7.61026-1.7746,.04853-3.20186,1.50353-3.20186,3.28696s1.42696,3.23873,3.20186,3.28696c.31498,1.90641,1.92618,5.92085,4.6854,8.31112,2.55198,2.21201,5.76636,3.41917,9.15622,3.41917,3.39354,0,6.60729-1.20778,9.16013-3.42011,0,0,1.84496-1.66805,2.60269-2.97756,1.05736-1.61621,1.76303-3.42643,2.08198-5.33261,1.77037-.04853,3.1982-1.50353,3.1982-3.28696s-1.4279-3.23873-3.1982-3.28696ZM4.33052,10.56822l.00023-.04128c.03075-1.94536,1.38718-3.65654,3.31186-4.17024,.72797-.19504,1.48108-.18737,2.23972,.02282,.51492,.13876,1.05456-.14487,1.22884-.64521,.77192-2.21572,2.86314-3.70439,5.20374-3.70439,1.83174,0,3.51389,.89054,4.54361,2.39363-.86574,.41209-1.98436,1.17016-2.78447,2.52285-.13819,.23354-.17715,.50683-.10969,.76959,.06749,.26288,.2335,.48382,.4673,.62213,.15597,.09233,.33445,.14113,.51622,.14113,.35868,0,.69386-.19134,.8744-.49882,.96868-1.63705,2.6243-1.99485,2.68699-2.00794,.02198-.00366,.04037-.01,.05483-.01618,.01461-.00126,.03331-.00401,.0541-.01042,.77848-.23979,1.58974-.30336,2.41152-.1884,2.44445,.34155,4.41709,2.36951,4.69054,4.82217,.3074,2.74216-1.39668,5.24903-4.05181,5.96074-.44319,.11854-.75273,.52213-.75273,.98142v4.5124h-.05052c-2.23934-1.516-4.8591-2.34856-7.60312-2.39029-.07112-.00397-.14742-.00275-.21915-.00275-2.82103,0-5.52078,.83689-7.818,2.39246h-.05389v-6.06978c0-.52343-.39218-.95788-.91209-1.01053-2.25376-.23064-3.94262-2.1158-3.92842-4.38512Zm25.50359,25.86546c-.24116,0-.55257-.03489-.89316-.09862-.14113,2.44926-1.02746,4.70246-2.42787,6.53728-.05952,.0586-.1111,.12667-.15536,.19962-2.18904,2.73483-5.55046,4.49083-9.31484,4.49083s-7.12581-1.75568-9.31094-4.48958c-.04365-.07448-.09921-.14224-.15537-.20176-1.40405-1.83482-2.28762-4.08778-2.42825-6.53652-.38783,.06389-.7274,.09875-.96568,.09875-1.14048,0-2.06502-.79309-2.06502-1.77142l.00006-.00194-.00006-.00132,.0003-.00693c.00643-.97361,.92823-1.76124,2.06473-1.76124,.2388,0,.57935,.03477,.96825,.09854,.26214-4.61403,3.15938-8.53457,7.2084-10.27369-.27563,.51454-.53507,1.2224-.27166,2.2092,.24722,.92305,.89734,1.66046,1.78647,2.02612,.13154,.05464,.26676,.07997,.40289,.07997,.4145,0,.80916-.24631,.97673-.65471,.22281-.53931-.03632-1.15804-.57444-1.38086-.27074-.11263-.47432-.33728-.54605-.61747-.09187-.34186-.02411-.48197,.23502-.91203,.21518-.3635,.50668-.85308,.56223-1.52213,.347-.06257,.70137-.10958,1.05666-.14101-.01557,.02686-.03174,.0531-.04762,.08058-.31499,.52743-.78993,1.32319-.46303,2.5441,.24723,.92304,.89734,1.66046,1.78647,2.02612,.13154,.05494,.26677,.07996,.4029,.07996,.4145,0,.80916-.24692,.97673-.65471,.2228-.53907-.03633-1.15804-.57445-1.38086-.27502-.11201-.47432-.33697-.55032-.61747-.09158-.34186-.01984-.48196,.2393-.91203,.17153-.29184,.39466-.66726,.5024-1.15074,.43062,.04456,.85338,.1111,1.26818,.19992-.04425,.0992-.11202,.21427-.19962,.36445-.315,.52657-.78993,1.32288-.46303,2.54379,.24692,.92304,.89734,1.66107,1.78249,2.02612,.13582,.05463,.27073,.07996,.40258,.07996,.4188,0,.80919-.24631,.98103-.65471,.21882-.53931-.03633-1.15804-.57444-1.38086-.27502-.11262-.47433-.33727-.55033-.61747-.09157-.34186-.01984-.48196,.23533-.91203,.13125-.2225,.29515-.49293,.41053-.82318,4.14336,1.69987,7.12506,5.66793,7.38975,10.35028,.34018-.06649,.6512-.10316,.89211-.10316,.83563,0,1.55478,.42601,1.87984,1.03845,.16122,.2007,.25852,.45496,.25852,.73133,0,.27249-.09481,.52322-.2521,.72244-.32193,.61897-1.0451,1.05063-1.88625,1.05063Z"/><path d="M20.19275,39.05382c-.46242-.35467-1.12448-.26615-1.47945,.1981-.40625,.52805-1.01245,.83053-1.67053,.83053s-1.26425-.30248-1.66715-.83053c-.35522-.46333-1.02095-.55247-1.48337-.1981h.00007c-.46242,.35498-.55461,1.01888-.19901,1.48283,.80912,1.0558,2.02909,1.66137,3.34923,1.66137,1.32374,0,2.5398-.60557,3.34924-1.66137,.35528-.4643,.26738-1.12784-.19902-1.48283Z"/><path d="M14.17528,32.26862c-.39101-1.14585-1.46329-1.91563-2.66803-1.91563-1.20786,0-2.28008,.76951-2.67138,1.91563-.1874,.55244,.10775,1.15346,.66205,1.34148h.00006c.55033,.18708,1.15252-.10867,1.34023-.66173,.09523-.28325,.37055-.48135,.66936-.48135s.56589,.19352,.66601,.48135c.14744,.44075,.55797,.7182,1.00087,.7182,.11171,0,.22708-.01892,.33879-.05647,.5543-.18769,.84975-.78841,.66205-1.34148Z"/></g><g><path d="M58.98559,20.0992c.46083,.35274,.77965,.72553,.95602,1.11867v.71196c0,.05427-.02735,.08125-.0814,.08125l.0814,.1628v.30511c-.54253,.63749-.86127,.95602-.95602,.95602l-.32546-.0814c-.9763,.32546-1.60686,.69854-1.89161,1.11867-.74588,.92225-1.32911,2.32583-1.74924,4.21044,.0407,.10868,.06105,.19008,.06105,.24406l-.06105,.32546c.0407,.09497,.06105,.17637,.06105,.24406l-.06105,.14245,.06105,.16265c-.0407,.36616-.06105,.65784-.06105,.87462v.0814c.09475,.52881,.14238,.8205,.14238,.87462v.48811c0,.14938-.10168,.41379-.30511,.79322,.05405,.09512,.0814,.17652,.0814,.2442-.25777,.31204-.65792,.46776-1.20007,.46776-1.32911-.52881-1.99337-1.11174-1.99337-1.74924,0-.06769-.05434-.35908-.16273-.87462,.10839,0,.16273-.05397,.16273-.1628,0-.08125-.10868-.50138-.32538-1.26098l.08133-.32546-.79329-3.82393c-.27141-.55595-.45442-1.13902-.54916-1.74924-.05434,0-.08133-.02699-.08133-.0814,0-.70489,.61014-1.26113,1.83056-1.66784,.01335-.10839,.06769-.1628,.16273-.1628h.0814l.71189,.79322c.2167,.59694,.32546,.94275,.32546,1.03742h.22371c0-.42013,.6372-1.15937,1.91197-2.21715,.10839,0,.37279-.16265,.79329-.48811,.98964-.52881,1.94566-.79322,2.86791-.79322Z"/><path d="M67.57966,20.38395c.28476,0,.42713,.05427,.42713,.16265,.17607-.10839,.3388-.16265,.48818-.16265l1.64756,.56951c.89497,.48811,1.64055,1.12575,2.23742,1.91189,.6372,.9631,1.13202,2.06142,1.48483,3.29512,0,.54253-.33246,1.36981-.99672,2.48155-.32538,.44741-.54245,.67126-.65084,.67126-.12203,0-.97637,.35937-2.56288,1.07797-.86791,.32546-2.16303,.54253-3.88491,.65091l-.50854-.0814v.0814c.59657,.89497,1.20671,1.55945,1.83064,1.99329,1.08468,.59679,2.21007,.89497,3.37645,.89497,.35244-.05397,.63049-.13537,.83392-.24406,.10839,.05427,.18971,.0814,.24406,.0814,.02706-.10839,.0814-.1628,.16273-.1628h.26448c.48811,0,1.36944-.18979,2.64421-.56951h.24406l.65091,.73231c0,.84085-.49519,1.66784-1.48483,2.4814,0,.20336-1.07141,.53589-3.21379,.99672-.04063,0-.21036-.02699-.50846-.0814l-.32546,.0814c-1.51882,0-3.11904-.49489-4.80023-1.48483-1.49184-1.15244-2.59023-2.28483-3.29512-3.39687-.56951-1.61357-.90197-2.4407-.99665-2.4814-.93567-.48826-1.4035-1.00999-1.4035-1.56623v-.0814c0-.05397,.05405-.27104,.16273-.65091v-.26441h.32546l.26441,.18315c.43384-.13537,.65091-.44048,.65091-.91532,0-1.23384,.6372-2.63727,1.91197-4.21044,.70489-.70489,1.55915-1.2337,2.5628-1.58658l.48818-.24406h.73224l.99665-.16265Zm-3.05099,7.2817c.18971,.1628,.46783,.24406,.83392,.24406,.02706,0,.13545-.02699,.32546-.08125,.05405,0,.0814,.02728,.0814,.08125l.40678-.08125h.83392c.86761-.17607,1.52553-.39993,1.97302-.67126,.86761-.61021,1.30839-.99672,1.3221-1.15937-.48818-1.20671-.95602-1.81029-1.4035-1.81029-.14938-.18979-.72553-.35244-1.72889-.48811,0-.05412-.02735-.0814-.08133-.0814-1.60022,.50183-2.40015,1.41051-2.40015,2.72561-.10868,0-.16273,.44077-.16273,1.32203Z"/><path d="M82.66716,21.42123c.13537,0,.2574,.02743,.36616,.0814,.10831-.05397,.19635-.0814,.26441-.0814,.20336,0,.44048,.08833,.71189,.26441h.46783l.26441-.183h.08133c1.20678,.40686,1.81029,1.01029,1.81029,1.81029,.05405,0,.0814,.02728,.0814,.0814v.183c-.24413,1.08505-.54253,1.62728-.89497,1.62728l-.26441-.18315c-2.22408,0-3.84428,.92903-4.86135,2.78666-.48811,.77287-.73224,1.37644-.73224,1.81029v.97622c.1221,.8817,.18308,1.36288,.18308,1.44413v.36616c.3795,1.15274,.94901,1.89862,1.70861,2.2375,.5558,.29832,1.45748,.54238,2.70518,.73217,1.99337,0,3.64093-.60313,4.94268-1.81029h.18308c.27104,0,.69154,.39344,1.26105,1.17972l-.08133,.18315,.08133,.44741h-.08133l.08133,.183c-.16273,.71889-.31211,1.07812-.44748,1.07812l.0814,.183v.0814c-.86798,1.08505-1.52553,1.62714-1.97302,1.62714-.8003,.47484-2.08833,.71196-3.86463,.71196-2.2647,0-4.33247-.75252-6.20373-2.2577-.24406,0-.7596-.74559-1.54581-2.2375-.35281-.84055-.56288-1.83064-.63056-2.96966-.05434,0-.0814-.08804-.0814-.26441v-.183l.0814-.54916-.0814-.18315,.0814-.183-.0814-.52881c.13545-1.32881,.52889-2.76631,1.17972-4.31219l1.24078-1.54573c1.24741-1.15244,2.56951-2.02043,3.96631-2.60365Z"/><path d="M97.71219,20.38395c.28476,0,.42713,.05427,.42713,.16265,.17607-.10839,.3388-.16265,.48818-.16265l1.64756,.56951c.89497,.48811,1.64055,1.12575,2.23742,1.91189,.6372,.9631,1.13202,2.06142,1.48483,3.29512,0,.54253-.33246,1.36981-.99672,2.48155-.32538,.44741-.54245,.67126-.65084,.67126-.12203,0-.97637,.35937-2.56288,1.07797-.86791,.32546-2.16303,.54253-3.88491,.65091l-.50854-.0814v.0814c.59657,.89497,1.20671,1.55945,1.83064,1.99329,1.08468,.59679,2.21007,.89497,3.37645,.89497,.35244-.05397,.63049-.13537,.83392-.24406,.10839,.05427,.18971,.0814,.24406,.0814,.02706-.10839,.0814-.1628,.16273-.1628h.26448c.48811,0,1.36944-.18979,2.64421-.56951h.24406l.65091,.73231c0,.84085-.49519,1.66784-1.48483,2.4814,0,.20336-1.07141,.53589-3.21379,.99672-.04063,0-.21036-.02699-.50846-.0814l-.32546,.0814c-1.51882,0-3.11904-.49489-4.80023-1.48483-1.49184-1.15244-2.59023-2.28483-3.29512-3.39687-.56951-1.61357-.90197-2.4407-.99665-2.4814-.93567-.48826-1.4035-1.00999-1.4035-1.56623v-.0814c0-.05397,.05405-.27104,.16273-.65091v-.26441h.32546l.26441,.18315c.43384-.13537,.65091-.44048,.65091-.91532,0-1.23384,.6372-2.63727,1.91197-4.21044,.70489-.70489,1.55915-1.2337,2.5628-1.58658l.48818-.24406h.73224l.99665-.16265Zm-3.05099,7.2817c.18971,.1628,.46783,.24406,.83392,.24406,.02706,0,.13545-.02699,.32546-.08125,.05405,0,.0814,.02728,.0814,.08125l.40678-.08125h.83392c.86761-.17607,1.52553-.39993,1.97302-.67126,.86761-.61021,1.30839-.99672,1.3221-1.15937-.48818-1.20671-.95602-1.81029-1.4035-1.81029-.14938-.18979-.72553-.35244-1.72889-.48811,0-.05412-.02735-.0814-.08133-.0814-1.60022,.50183-2.40015,1.41051-2.40015,2.72561-.10868,0-.16273,.44077-.16273,1.32203Z"/><path d="M108.44931,15.50225h.16273c1.13902,.73231,1.70854,1.35609,1.70854,1.87134-.27141,1.15274-.73224,1.77652-1.38315,1.87134h-.08133c-.05434,0-.0814-.02699-.0814-.0814l-.48811,.24406h-.16273c-.20343-.25747-.55617-.47454-1.0577-.65091,0-.06769-.24406-.39314-.73224-.97622v-.24406c0-.46098,.2981-.89497,.89497-1.30183h.24406c0-.0814,.32546-.32546,.97637-.73231Zm.24406,8.21752c.05405,.16265,.21677,.24406,.48818,.24406,.09467,0,.23041-.05412,.40678-.1628,.81357,0,1.24741,.67819,1.30175,2.03399,.21677,1.93932,.43384,3.26813,.65091,3.98673,0,.10868-.02735,.16265-.0814,.16265,0,.0814,.16273,1.78994,.48818,5.12576-.09504,1.19344-.3391,1.78994-.73224,1.78994-.09504,.05427-.20343,.0814-.32546,.0814h-.32546c-.80022-.35244-1.34245-.62363-1.62721-.81372-.16273-.46083-.24406-.75915-.24406-.89497,.05405-.10824,.08133-.18964,.08133-.24406-.12203,0-.28476-1.46448-.48811-4.39344-.28476-2.79329-.52889-4.39344-.73224-4.8003v-.08125c.2981-.97637,.6779-1.46448,1.13902-1.46448v-.2442l-.16273,.0814-.08133-.16265c0-.0814,.08133-.1628,.24406-.24406Z"/><path d="M117.6227,14.24127c.70489,.33902,1.05762,.98994,1.05762,1.95259,.10839,.54253,.16273,1.08505,.16273,1.62728v2.74581c0,.24406,.05405,.46112,.16273,.65091,.69154-.16265,1.63392-.29818,2.82728-.40686,0-.05397,.05405-.08125,.16273-.08125,.48818,0,.73224,.16265,.73224,.48811,.16273,.39344,.24406,.63749,.24406,.73231,0,.10868-.19001,.46112-.56951,1.05762,0,.13567-.21707,.27134-.65084,.40686-.06806,.21707-1.09169,.58986-3.07141,1.11867,0,.17637-.02728,.36616-.08133,.56951,0,.05427,.02699,.0814,.08133,.0814l-.08133,.40671c.05405,.28476,.08133,.44756,.08133,.48826-.10868,.01357-.16273,.06798-.16273,.16265v2.03399c0,.8817,.24413,1.7426,.73231,2.58315,.54216,1.03078,1.2407,1.54588,2.09497,1.54588,.01335,.10868,.06769,.1628,.16273,.1628,1.15244-.35244,1.93902-.9221,2.35945-1.70868,.48818,0,.83399-.27104,1.03735-.81357,.0814-.42013,.40678-.68454,.97637-.79322,0-.1628,.08133-.24406,.24406-.24406,.48818,.06798,.73224,.25762,.73224,.56951l.32546,.46776v.0814c-.09504,.13567-.20343,.54253-.32546,1.22043l-.81357,1.46448c-.55624,.93567-1.4442,1.7426-2.66456,2.4205,0,.10868-.54253,.24406-1.62721,.40671l-.16273-.0814c-.05434,0-.13574,.02743-.24413,.0814-1.65449,0-3.22072-.83392-4.69855-2.50175-.9763-1.59985-1.46448-3.41014-1.46448-5.43086l.0814-.16265c-.05441-.09482-.0814-.2035-.0814-.32546,0-.27119,.05405-.40686,.16273-.40686-.05434-.29803-.08133-.5151-.08133-.65091,0-.06769,.02699-.33873,.08133-.81357h-.16273c-.52881,.10868-.82728,.16265-.89497,.16265h-.63056c-.28476-.27104-.69154-.48811-1.22035-.65077-.48818-.47454-.73224-.76594-.73224-.87462,0-.66433,.43414-1.23384,1.30175-1.70868,.48811-.04055,.73224-.12195,.73224-.24406l.32546,.0814c.2574,0,.73888-.05397,1.44413-.16265,0-.28476,.02699-.82699,.08133-1.62728l-.08133-1.11867h.08133c0-.05412-.02728-.0814-.08133-.0814l.08133-.56951c0-.0407-.02728-.39314-.08133-1.05762l.08133-.1628c-.16273-.86754-.24406-1.46448-.24406-1.78994,.55587-.75915,1.17972-1.13902,1.87126-1.13902,0-.09467,.13537-.14909,.40686-.16265Z"/><path d="M129.4403,15.50225h.16273c1.13902,.73231,1.70854,1.35609,1.70854,1.87134-.27141,1.15274-.73224,1.77652-1.38315,1.87134h-.08133c-.05434,0-.0814-.02699-.0814-.0814l-.48811,.24406h-.16273c-.20343-.25747-.55617-.47454-1.0577-.65091,0-.06769-.24406-.39314-.73224-.97622v-.24406c0-.46098,.2981-.89497,.89497-1.30183h.24406c0-.0814,.32546-.32546,.97637-.73231Zm.24406,8.21752c.05405,.16265,.21677,.24406,.48818,.24406,.09467,0,.23041-.05412,.40678-.1628,.81357,0,1.24741,.67819,1.30175,2.03399,.21677,1.93932,.43384,3.26813,.65091,3.98673,0,.10868-.02735,.16265-.0814,.16265,0,.0814,.16273,1.78994,.48818,5.12576-.09504,1.19344-.3391,1.78994-.73224,1.78994-.09504,.05427-.20343,.0814-.32546,.0814h-.32546c-.80022-.35244-1.34245-.62363-1.62721-.81372-.16273-.46083-.24406-.75915-.24406-.89497,.05405-.10824,.08133-.18964,.08133-.24406-.12203,0-.28476-1.46448-.48811-4.39344-.28476-2.79329-.52889-4.39344-.73224-4.8003v-.08125c.2981-.97637,.6779-1.46448,1.13902-1.46448v-.2442l-.16273,.0814-.08133-.16265c0-.0814,.08133-.1628,.24406-.24406Z"/><path d="M143.45462,20.95346c.66418,.16265,1.12538,.24406,1.38308,.24406,.10839-.05397,.18979-.0814,.24413-.0814,0,.05441,.81357,.32546,2.44078,.81372,1.16608,.48811,2.06105,1.51875,2.68491,3.09162,.27112,1.09832,.46083,2.18338,.56951,3.25442,.10839,.01371,.16273,.06798,.16273,.1628-.10868,.17637-.16273,.33902-.16273,.48811,.3795,1.39679,.56951,2.64421,.56951,3.74253,0,1.19344-.43414,1.78994-1.30175,1.78994,0-.16265-.35274-.27104-1.0577-.32546-.54253-.28476-.81357-.61021-.81357-.97622-.10868,0-.35281-1.38323-.73224-4.14939,0-.7186-.29847-1.91204-.89497-3.57987-.86798-.5965-1.70861-.89497-2.52218-.89497-.10868,.05427-.19008,.0814-.24406,.0814-.10876-.05412-.19008-.0814-.24413-.0814-1.30175,.23064-2.00701,.50183-2.11532,.81357-.55624,.55624-.93567,1.07134-1.1391,1.54588l.0814,.16265v.0814c-.19008,.28476-.3798,.88155-.56951,1.78994,.05397,.10868,.08133,.19008,.08133,.24406-.05434,.37987-.08133,.59694-.08133,.65091l.08133,.16265-.16273,.32546,.0814,.56951-.0814,.1628c.14909,1.00365,.28476,1.57316,.40678,1.70854v.24406l-.24406,.32546c.10839,.21707,.16273,.37972,.16273,.48811-.17637,0-.31211,.27148-.40678,.81372l-.32546,.24406h-.48818c-.82728,0-1.64085-.46083-2.44078-1.38323v-.08125c.01335-.37958,.06769-.56951,.16273-.56951-.05434-.10839-.0814-.18979-.0814-.24406-.36608-3.53917-.96295-6.1154-1.78994-7.72926,.23041-.7593,.61021-1.13902,1.1391-1.13902,.16265-.25747,.46083-.44756,.89489-.56966h.65091c.32546,.17652,.48818,.42057,.48818,.73231h.24406c.77294-1.2337,1.83064-2.10168,3.17309-2.6035,.16273,0,.43377-.05412,.81357-.1628h1.13902l.24413-.16265Z"/><path d="M160.09279,11.49532c.9763,0,2.01364,.36616,3.11204,1.09832l.9356,1.09847c.48818,.90854,.82699,1.6205,1.01707,2.1356,.14901,0,.22371,.05441,.22371,.1628v.08125c0,.1221-.04771,.18315-.14238,.18315l-.24406-.18315c0,.1221-.07469,.18315-.22378,.18315,0,.31204-.08133,.87462-.24406,1.68819v.1628l.08133,.183c-.12203,0-.30511,.48148-.54916,1.44413-.59687,1.36981-.93567,2.07469-1.017,2.11539-.32546,.74588-.66455,1.28148-1.017,1.60679,0,.31218-.54253,1.05113-1.62721,2.21715,0,.10868-.10175,.27812-.30511,.50846v.50846c0,.1221,.10168,.52218,.30511,1.20007h.08133c.31182-.4337,.72524-.80649,1.24078-1.11867,1.15237-.78629,2.08804-1.26776,2.80693-1.44413,0-.12195,1.017-.29139,3.05099-.50846,.39314,.05427,.80664,.0814,1.24078,.0814,0,.09497,.35908,.23727,1.07797,.42706,.81364,.74588,1.28148,1.45784,1.4035,2.13574,.08133,0,.16273,.0814,.24406,.24406v.183l-.16273,.2442c.06776,0,.17607,.16959,.32546,.50846-.05434,.17637-.10868,.26441-.16273,.26441l.22378,1.26113-.06105,.50846c.09475,.19008,.14238,.35937,.14238,.50846v.85427c.10839,.40686,.16273,.63764,.16273,.69161,0,.21707-.02735,.32546-.08133,.32546l.08133,.58986v1.20007c.18971,.43414,.31845,1.08505,.38643,1.95259,0,.55624-.183,1.09169-.54916,1.60693-.13567,.33902-.23742,.50846-.30511,.50846h-.46783c-.12203-.10839-.22371-.16265-.30503-.16265l-.16273,.08125c-.24413-.18964-.58323-.30511-1.017-.34566-.4205-.21677-.63056-.55595-.63056-1.01707,0-.23049,.02699-.54223,.08133-.93567l-.14238-.42706,.06105-.1628-.06105-.16265,.06105-.18315-.06105-.40671h.06105c-.0407-.1221-.06105-.21014-.06105-.26441l-.08133-1.36288,.08133-.42706c-.09504-.40686-.20336-1.45091-.32546-3.13246-.10868-1.07104-.31204-1.60679-.61014-1.60679-.0814,0-.31882-.06105-.71196-.18315l-1.62721,.34581c-1.26105,.47484-1.96631,.86798-2.11532,1.17972-1.28841,1.11204-1.93232,2.84092-1.93232,5.18681v1.44413c-.25777,1.17972-.49519,1.83064-.71189,1.95259h-.0814c-.05434,0-.08133-.02699-.08133-.0814l-.38651,.0814h-.14238c-.19001-.28476-.52881-.42706-1.017-.42706,0-.13552-.21036-.25084-.63056-.34581,0-.2035-.10168-.39978-.30503-.58986v-.0814c.09467-1.2744,.14238-1.95259,.14238-2.03399v-1.09832c-.40686-2.46784-.71889-3.97302-.93567-4.51554h-.06105c-2.07469,1.99329-3.29504,3.241-3.6612,3.74253-.21707,0-.42713,.19672-.63056,.58986-.48811,.28476-.88125,.62393-1.17972,1.01707-.18971,0-.50146,.16973-.9356,.50846l-.52889,.10175-.40678-.10175c-.09467,.06798-.16936,.10175-.22371,.10175-.10839-.32546-.47454-.58293-1.0984-.77301-.10839-.14894-.21006-.46083-.30511-.93567v-.34566c.02735-.47454,.93567-1.20686,2.72561-2.19679l2.03399-1.87134c-.16273,0-.24413-.05397-.24413-.16265,.01342-.1221,.06776-.183,.16273-.183,.10839,.02728,.16273,.08833,.16273,.183,.36616-.21677,.88133-.69825,1.54588-1.44413,0-.05397,.3388-.42721,1.017-1.11867,.56951-.44756,.85427-.81372,.85427-1.09847l-1.56616-5.34931-.44748-2.03414c0-.12195,.02035-.23698,.06098-.34566-.04063-.37958-.06098-.69161-.06098-.93567v-.42721c.09467-.74559,.48118-1.53217,1.15937-2.35945,.12203,0,.27775-.16944,.46783-.50846,2.04734-1.19314,3.3221-1.78994,3.82393-1.78994Zm-2.25777,5.16631l.06105,.42721c-.0407,.10868-.06105,.19672-.06105,.26441,.09475,0,.19642,.53589,.30511,1.60693l.38643,.93567-.08133,.42706c.08133,.01371,.31845,.75266,.71189,2.21715h.0814c1.19307-1.88476,1.78994-3.05106,1.78994-3.49862,.13537-.01327,.33873-.63042,.61014-1.85084-.09497-.18979-.14238-.33224-.14238-.42721l.30511-.183-.08133-.1628,.08133-.42706-.46783-.85427-.54916-.1628h-.38643c-1.70861,.51554-2.56288,1.07812-2.56288,1.68819Z"/><path d="M180.96175,22.7027h1.13902c.77294,.1221,1.49154,.29847,2.15602,.52881h.18308c.12203,0,.23712-.02699,.34581-.0814,.42013,0,1.05069,.19687,1.89161,.58986,.12203,0,.21006,.34581,.26441,1.03742l.61021,1.83064v.69147l.42713,2.4205c-.05434,.10868-.08133,.19672-.08133,.26441,.10839,.19008,.16273,.35952,.16273,.50861v.87462l.26441,1.20007c0,1.13902-.52218,1.91897-1.56616,2.3391-.23078,.05427-.42721,.08125-.58986,.08125l-.34581-.08125c-.12203,.05427-.21043,.08125-.26441,.08125,0-.14894-.20343-.26441-.61021-.34566,0-.10839-.16973-.33888-.50854-.69161v-.42721h-.10168l-1.03735,.69161c-.02735,.16265-.40015,.30511-1.11867,.42721-.54253,.35274-1.37652,.52881-2.5019,.52881-1.09832,0-2.3391-.5763-3.72218-1.72889-.23078,0-.4612-.37279-.69161-1.11882-.14938,0-.2984-.37943-.44748-1.13902l.10175-.16265-.10175-.18315,.10175-.16265c-.12203-.18979-.18308-.36616-.18308-.52881v-.85427c.35244-1.16616,.52881-1.77637,.52881-1.83064,.62356-1.4779,1.85762-2.83399,3.7019-4.06799v.1016c1.19307-.52881,1.85762-.79322,1.99337-.79322Zm-.42713,3.45777c-.10868-.05397-.19672-.08125-.26448-.08125-.36608,.24406-.73917,.58986-1.11867,1.03727-.2984,0-.52881,.40686-.69154,1.22043-.23078,.23078-.34581,.54916-.34581,.95602v.77287c.17607,.55624,.54916,1.07134,1.11875,1.54588,.5558,.23064,.87462,.34581,.95595,.34581h.34581l.61021-.1628,.16265,.0814c.84063-.27104,1.27447-.58986,1.30183-.95602,.35244-.24406,.69818-1.07797,1.03735-2.50175v-.61021c-.23078-1.26113-.63056-1.89169-1.20007-1.89169-.0814-.06769-.40015-.12874-.95602-.183-.19001,.05427-.50846,.19672-.95595,.42706Z"/><path d="M195.44383,20.0992c.28476,.10868,.50153,.16265,.65091,.16265,.05405,0,.13537-.02699,.24406-.08125,1.13902,.12195,1.95267,.36601,2.44085,.73217,.27104,.58323,.40678,.90868,.40678,.97637,0,1.01692-.24406,1.64085-.73224,1.87119-.16273,0-.43414,.05441-.81364,.1628h-.08133l-1.13902-.56951c-1.57324,0-2.35945,.35274-2.35945,1.05762,.86761,2.06142,1.59985,3.14603,2.19672,3.25442l1.13902,.65091c1.3558,.96295,2.03399,1.64085,2.03399,2.03399l.48818,1.05777c0,.24406,.02699,.59679,.08133,1.05762-.10868,.21707-.16273,.37972-.16273,.48811l.0814,.1628c-.27141,1.35609-.70525,2.4407-1.30175,3.25442-1.27477,1.35609-2.54953,2.03399-3.82393,2.03399-2.11539-.09467-3.17309-.61021-3.17309-1.54588v-.0814c.17607-.05397,.3388-.35244,.48818-.89497l1.22043-.97622c.01335-.10839,.06769-.1628,.16265-.1628h.16273c.18979,0,.40686,.10868,.65091,.32546h.56951c1.24741-.24406,1.87126-1.11174,1.87126-2.6035-.2984-.81357-.65084-1.22043-1.05762-1.22043-.05434-.21677-.73224-.70489-2.03407-1.46448-1.08498-.86769-1.62721-1.51845-1.62721-1.95259-.2577,0-.58315-.62363-.9763-1.87134-.0407-.61021-.12203-1.01707-.24406-1.22043,0-1.47775,.75923-2.75259,2.27805-3.82393,.7593-.32546,1.54588-.5965,2.35945-.81357Z"/></g></svg>