<?xml version="1.0" encoding="UTF-8"?><svg id="a" xmlns="http://www.w3.org/2000/svg" viewBox="0 0 100 100"><path d="M60.42968,60.34295c-2.26499,0-4.27593,1.4427-5.00841,3.5915-.35074,1.03573,.20202,2.16255,1.24066,2.51505h0c1.03924,.35074,2.16089-.20373,2.51168-1.24064,.18655-.53105,.70215-.90245,1.25609-.90245,.55222,0,1.06839,.37254,1.24808,.90245,.28391,.82633,1.05471,1.34651,1.87646,1.34651,.2169,0,.43432-.03548,.64264-.10587,1.04035-.35188,1.59315-1.47813,1.23492-2.51505-.72574-2.14827-2.73713-3.5915-5.00211-3.5915Z"/><path d="M76.00391,62.25458c-.8904-5.36659-3.43166-10.32461-7.37111-14.26799l-.01656-.01616v-10.29976c6.02473-2.29372,9.71095-8.35007,8.98705-14.82086-.70294-6.30284-5.77193-11.51318-12.05245-12.38894-1.53885-.21624-3.08007-.18462-4.58559,.09414-2.51633-4.39825-7.19691-7.11894-12.28071-7.11894-5.39153,0-10.35008,3.11111-12.70968,7.94877-1.52061-.20265-3.04359-.10486-4.53179,.29085-5.2891,1.41303-9.00465,6.16407-9.03555,11.55367-.03248,5.61099,3.68472,10.39464,9.07511,11.73421v13.00826l-.01509,.01474c-3.94617,3.94338-6.48929,8.90081-7.37111,14.26798-3.32708,.09098-6.00296,2.81888-6.00296,6.16251s2.67531,6.07209,6.00296,6.1625c.59053,3.57421,3.61128,11.10063,8.78435,15.582,4.78455,4.14715,10.81097,6.41038,17.16641,6.41038,6.36233,0,12.38758-2.2644,17.17374-6.41214,0,0,3.459-3.12731,4.87962-5.58244,1.98238-3.03012,3.30539-6.424,3.90337-9.99777,3.31916-.09098,5.99609-2.81888,5.99609-6.16251s-2.67708-6.07209-5.99609-6.1625ZM26.21248,23.24974l.00043-.0774c.05765-3.64724,2.60074-6.85542,6.2092-7.81852,1.36482-.36567,2.77677-.35129,4.1991,.04278,.96539,.26016,1.97713-.2716,2.30388-1.20967,1.44722-4.15411,5.36792-6.94512,9.75616-6.94512,3.43422,0,6.58796,1.66961,8.51852,4.48766-1.62312,.77261-3.72034,2.19387-5.22043,4.72994-.25909,.43784-.33212,.95022-.20565,1.44286,.12654,.49285,.43777,.90709,.87612,1.16639,.29242,.17311,.62704,.26459,.96782,.26459,.67247,0,1.30087-.35873,1.63935-.9352,1.81611-3.06919,4.92014-3.74001,5.03766-3.76455,.0412-.00687,.07568-.01874,.10279-.03033,.0274-.00236,.06245-.00751,.10143-.01953,1.45952-.44957,2.9805-.56875,4.52121-.35322,4.58294,.64035,8.28132,4.44245,8.79399,9.04077,.57633,5.1411-2.61855,9.84106-7.59648,11.17541-.83091,.22225-1.41124,.97891-1.41124,1.84v8.46001h-.09471c-4.19839-2.84224-9.11001-4.40317-14.2546-4.4814-.13333-.00744-.2764-.00515-.41088-.00515-5.28897,0-10.35056,1.56904-14.65746,4.48548h-.10104v-11.37985c0-.98134-.73527-1.79587-1.71003-1.89458-4.22543-.43241-7.39176-3.96677-7.36515-8.22138Zm47.81505,48.4935c-.45213,0-1.03597-.06542-1.67453-.1849-.26459,4.59195-1.92632,8.81635-4.55186,12.25633-.11159,.10987-.2083,.23748-.29128,.37425-4.10409,5.12736-10.4062,8.41957-17.4638,8.41957s-13.35972-3.29162-17.45648-8.41722c-.08183-.13963-.186-.26667-.29129-.37826-2.63237-3.43999-4.28891-7.66391-4.55257-12.2549-.72712,.11979-1.36376,.18513-1.81049,.18513-2.13821,0-3.87158-1.48692-3.87158-3.32113l.00011-.00363-.00011-.00247,.00055-.01299c.01205-1.82536,1.74029-3.30204,3.87102-3.30204,.44771,0,1.08619,.06518,1.8153,.18475,.49147-8.65055,5.92331-16.00092,13.51457-19.26148-.51676,.96468-1.00317,2.29179-.50932,4.14189,.46351,1.73057,1.68236,3.11309,3.34935,3.79864,.24662,.10243,.50013,.14993,.75535,.14993,.77712,0,1.51704-.4618,1.8312-1.22748,.41772-1.01112-.0681-2.17114-1.07698-2.58888-.50759-.21116-.88928-.63234-1.02376-1.15765-.17225-.64094-.04521-.90361,.44063-1.7099,.40344-.68151,.94994-1.59938,1.05409-2.85375,.65058-.11731,1.31496-.20544,1.98106-.26438-.02918,.05035-.05951,.09956-.08927,.15107-.59056,.98885-1.48098,2.48077-.8681,4.76977,.46352,1.73056,1.68236,3.11309,3.34935,3.79864,.24662,.103,.50015,.14992,.75537,.14992,.77712,0,1.51704-.46294,1.8312-1.22748,.41771-1.01067-.06812-2.17113-1.07699-2.58888-.51562-.21-.88928-.63176-1.03177-1.15765-.17169-.64093-.0372-.9036,.44864-1.7099,.32159-.54716,.73992-1.251,.94192-2.15745,.80734,.08355,1.59994,.2083,2.37763,.37482-.08296,.18599-.21002,.40172-.37425,.68328-.59058,.98723-1.48098,2.48018-.8681,4.76918,.46293,1.73056,1.68236,3.11423,3.34187,3.79864,.25463,.10242,.50757,.14992,.75478,.14992,.78518,0,1.51711-.4618,1.83927-1.22748,.41025-1.01111-.06812-2.17113-1.07698-2.58888-.51562-.21115-.8893-.63233-1.03179-1.15765-.17168-.64093-.0372-.9036,.44121-1.7099,.24607-.41714,.55337-.92416,.76968-1.54333,7.76812,3.18698,13.35831,10.62644,13.85458,19.40509,.63777-.12466,1.2209-.19341,1.67256-.19341,1.56666,0,2.91495,.7987,3.52438,1.94692,.30226,.37628,.48468,.85297,.48468,1.37112,0,.51088-.17776,.98095-.47264,1.35445-.60356,1.16046-1.95939,1.96976-3.53642,1.96976Z"/><path d="M55.95155,76.65559c-.86696-.66495-2.10821-.49899-2.77373,.3714-.76165,.99-1.89817,1.5571-3.13196,1.5571s-2.37026-.56711-3.12563-1.5571c-.66597-.86868-1.91411-1.03578-2.78108-.3714h.00013c-.86696,.66554-1.0398,1.91023-.37311,2.78006,1.51696,1.97946,3.80421,3.1148,6.27925,3.1148,2.4818,0,4.76171-1.13535,6.27927-3.1148,.6661-.87048,.50129-2.11452-.37313-2.78006Z"/><path d="M44.66979,63.93445c-.73307-2.14827-2.74342-3.5915-5.00211-3.5915-2.26454,0-4.27478,1.4427-5.00841,3.5915-.35134,1.03573,.202,2.16255,1.24123,2.51505h.00011c1.03179,.35074,2.16078-.20373,2.51272-1.24064,.17854-.53105,.69471-.90245,1.25495-.90245s1.06095,.36282,1.24865,.90245c.27643,.82633,1.04611,1.34651,1.87646,1.34651,.20944,0,.42574-.03548,.63518-.10587,1.03922-.35188,1.59315-1.47813,1.24123-2.51505Z"/></svg>